<svg xmlns="http://www.w3.org/2000/svg" viewBox="0 0 1200 630" role="img" aria-label="Golfsetrið Akureyri">
  <defs>
    <linearGradient id="aurora" x1="128" y1="456" x2="1080" y2="190" gradientUnits="userSpaceOnUse">
      <stop stop-color="#059669"/>
      <stop offset=".72" stop-color="#10b981"/>
      <stop offset="1" stop-color="#a3e635"/>
    </linearGradient>
    <linearGradient id="markLine" x1="401" y1="367" x2="523" y2="319" gradientUnits="userSpaceOnUse">
      <stop stop-color="#059669"/>
      <stop offset="1" stop-color="#a3e635"/>
    </linearGradient>
  </defs>
  <rect width="1200" height="630" fill="#0a0f0c"/>
  <path fill="none" stroke="url(#aurora)" stroke-linecap="round" stroke-width="8" opacity=".28" d="M95 444C316 287 597 254 1077 196"/>
  <path fill="none" stroke="#166534" stroke-linecap="round" stroke-width="3" opacity=".45" d="M82 493c165-64 325-90 513-78 150 9 295 46 523-9"/>
  <g transform="translate(330 185) scale(3.05)">
    <path fill="#121a15" stroke="#059669" stroke-width="2.5" d="M32 4.5 54 16.8v29.1L32 59.5 10 45.9V16.8Z"/>
    <path fill="#14532d" d="M14.5 43.5 25 29l7 7 10.5-17.5 7 12 5 13Z"/>
    <path fill="#166534" d="M14.5 43.5 25 29l7 7 5-8.2 12.5 15.7Z"/>
    <path fill="#e9efe9" d="m25 29 3.5 3.9L32 36l-7 1.8-5.3-1.7Zm17.5-10.5 4.1 7.1-3.9-1.2-4.6 1.4Z"/>
    <path fill="none" stroke="url(#markLine)" stroke-linecap="round" stroke-width="3" d="M18.5 45.5c8.5-5.9 18.5-7.4 30.3-4.4"/>
    <path fill="none" stroke="#e9efe9" stroke-linecap="round" stroke-width="2.3" d="M37.5 20.3v22"/>
    <path fill="#a3e635" d="M37.5 20.3 49 24.2l-11.5 4.1Z"/>
    <path fill="#0a0f0c" d="M36.2 44.2c0-1.4 1.5-2.4 3.6-2.4s3.6 1 3.6 2.4-1.5 2.4-3.6 2.4-3.6-1-3.6-2.4Z"/>
  </g>
  <g font-family="'Barlow Condensed', Barlow, sans-serif" text-anchor="middle">
    <text x="600" y="442" fill="#e9efe9" font-size="118" font-weight="700">Golfsetrið</text>
    <text x="600" y="499" fill="#a3e635" font-size="31" font-weight="700" letter-spacing="12">AKUREYRI</text>
  </g>
  <text x="600" y="553" fill="#9bb0a3" font-family="Barlow, sans-serif" font-size="30" text-anchor="middle">Innigolf, verslun og æfing í hjarta Eyjafjarðar</text>
</svg>
